<mxfile host="app.diagrams.net" modified="2023-01-20T11:18:10.010Z" agent="5.0 (Windows NT 10.0; Win64; x64) AppleWebKit/537.36 (KHTML, like Gecko) Chrome/109.0.0.0 Safari/537.36" etag="2aZYtMesrsUCMIQ_NxdE" version="20.8.8" type="github">
  <diagram id="4hy5c6nUzvAz7V0r_2s1" name="Page-1">
    <mxGraphModel dx="1120" dy="484" grid="1" gridSize="10" guides="1" tooltips="1" connect="1" arrows="1" fold="1" page="1" pageScale="1" pageWidth="850" pageHeight="1100" math="0" shadow="0">
      <root>
        <mxCell id="0" />
        <mxCell id="1" parent="0" />
        <mxCell id="e8IyntJsyZ7bCLRGpjRz-1" value="AWS Cloud" style="points=[[0,0],[0.25,0],[0.5,0],[0.75,0],[1,0],[1,0.25],[1,0.5],[1,0.75],[1,1],[0.75,1],[0.5,1],[0.25,1],[0,1],[0,0.75],[0,0.5],[0,0.25]];outlineConnect=0;gradientColor=none;html=1;whiteSpace=wrap;fontSize=12;fontStyle=0;container=1;pointerEvents=0;collapsible=0;recursiveResize=0;shape=mxgraph.aws4.group;grIcon=mxgraph.aws4.group_aws_cloud_alt;strokeColor=#232F3E;fillColor=none;verticalAlign=top;align=left;spacingLeft=30;fontColor=#232F3E;dashed=0;" parent="1" vertex="1">
          <mxGeometry x="120" y="30" width="730" height="540" as="geometry" />
        </mxCell>
        <mxCell id="e8IyntJsyZ7bCLRGpjRz-4" value="&lt;span style=&quot;box-sizing: border-box; font-family: AmazonEmberBold, &amp;quot;Helvetica Neue Bold&amp;quot;, &amp;quot;Helvetica Neue&amp;quot;, Helvetica, Arial, sans-serif; color: rgb(51, 51, 51); font-size: 14px;&quot;&gt;Asia Pacific (Hyderabad)&lt;/span&gt;" style="points=[[0,0],[0.25,0],[0.5,0],[0.75,0],[1,0],[1,0.25],[1,0.5],[1,0.75],[1,1],[0.75,1],[0.5,1],[0.25,1],[0,1],[0,0.75],[0,0.5],[0,0.25]];outlineConnect=0;gradientColor=none;html=1;whiteSpace=wrap;fontSize=12;fontStyle=0;container=1;pointerEvents=0;collapsible=0;recursiveResize=0;shape=mxgraph.aws4.group;grIcon=mxgraph.aws4.group_region;strokeColor=#147EBA;fillColor=none;verticalAlign=top;align=left;spacingLeft=30;fontColor=#147EBA;dashed=1;" parent="e8IyntJsyZ7bCLRGpjRz-1" vertex="1">
          <mxGeometry x="20" y="45" width="630" height="450" as="geometry" />
        </mxCell>
        <mxCell id="e8IyntJsyZ7bCLRGpjRz-28" value="" style="edgeStyle=orthogonalEdgeStyle;rounded=0;orthogonalLoop=1;jettySize=auto;html=1;" parent="e8IyntJsyZ7bCLRGpjRz-4" source="e8IyntJsyZ7bCLRGpjRz-6" target="e8IyntJsyZ7bCLRGpjRz-9" edge="1">
          <mxGeometry relative="1" as="geometry" />
        </mxCell>
        <mxCell id="e8IyntJsyZ7bCLRGpjRz-6" value="CDN" style="outlineConnect=0;dashed=0;verticalLabelPosition=bottom;verticalAlign=top;align=center;html=1;shape=mxgraph.aws3.cloudfront;fillColor=#F58536;gradientColor=none;" parent="e8IyntJsyZ7bCLRGpjRz-4" vertex="1">
          <mxGeometry y="167" width="76.5" height="80" as="geometry" />
        </mxCell>
        <mxCell id="e8IyntJsyZ7bCLRGpjRz-8" value="Availability Zone" style="fillColor=none;strokeColor=#147EBA;dashed=1;verticalAlign=top;fontStyle=0;fontColor=#147EBA;" parent="e8IyntJsyZ7bCLRGpjRz-4" vertex="1">
          <mxGeometry x="110" y="40" width="510" height="360" as="geometry" />
        </mxCell>
        <mxCell id="e8IyntJsyZ7bCLRGpjRz-26" value="" style="edgeStyle=orthogonalEdgeStyle;rounded=0;orthogonalLoop=1;jettySize=auto;html=1;" parent="e8IyntJsyZ7bCLRGpjRz-4" target="e8IyntJsyZ7bCLRGpjRz-11" edge="1">
          <mxGeometry relative="1" as="geometry">
            <mxPoint x="190" y="201" as="sourcePoint" />
          </mxGeometry>
        </mxCell>
        <mxCell id="e8IyntJsyZ7bCLRGpjRz-9" value="S3" style="outlineConnect=0;dashed=0;verticalLabelPosition=bottom;verticalAlign=top;align=center;html=1;shape=mxgraph.aws3.s3;fillColor=#E05243;gradientColor=none;" parent="e8IyntJsyZ7bCLRGpjRz-4" vertex="1">
          <mxGeometry x="126" y="171.25" width="60" height="70" as="geometry" />
        </mxCell>
        <mxCell id="e8IyntJsyZ7bCLRGpjRz-11" value="API Gateway" style="sketch=0;points=[[0,0,0],[0.25,0,0],[0.5,0,0],[0.75,0,0],[1,0,0],[0,1,0],[0.25,1,0],[0.5,1,0],[0.75,1,0],[1,1,0],[0,0.25,0],[0,0.5,0],[0,0.75,0],[1,0.25,0],[1,0.5,0],[1,0.75,0]];outlineConnect=0;fontColor=#232F3E;gradientColor=#FF4F8B;gradientDirection=north;fillColor=#BC1356;strokeColor=#ffffff;dashed=0;verticalLabelPosition=bottom;verticalAlign=top;align=center;html=1;fontSize=12;fontStyle=0;aspect=fixed;shape=mxgraph.aws4.resourceIcon;resIcon=mxgraph.aws4.api_gateway;" parent="e8IyntJsyZ7bCLRGpjRz-4" vertex="1">
          <mxGeometry x="254" y="175" width="52.5" height="52.5" as="geometry" />
        </mxCell>
        <mxCell id="e8IyntJsyZ7bCLRGpjRz-15" value="VPC" style="points=[[0,0],[0.25,0],[0.5,0],[0.75,0],[1,0],[1,0.25],[1,0.5],[1,0.75],[1,1],[0.75,1],[0.5,1],[0.25,1],[0,1],[0,0.75],[0,0.5],[0,0.25]];outlineConnect=0;gradientColor=none;html=1;whiteSpace=wrap;fontSize=12;fontStyle=0;container=1;pointerEvents=0;collapsible=0;recursiveResize=0;shape=mxgraph.aws4.group;grIcon=mxgraph.aws4.group_vpc;strokeColor=#248814;fillColor=none;verticalAlign=top;align=left;spacingLeft=30;fontColor=#AAB7B8;dashed=0;" parent="e8IyntJsyZ7bCLRGpjRz-4" vertex="1">
          <mxGeometry x="340" y="70" width="260" height="300" as="geometry" />
        </mxCell>
        <mxCell id="e8IyntJsyZ7bCLRGpjRz-18" value="Public subnet" style="points=[[0,0],[0.25,0],[0.5,0],[0.75,0],[1,0],[1,0.25],[1,0.5],[1,0.75],[1,1],[0.75,1],[0.5,1],[0.25,1],[0,1],[0,0.75],[0,0.5],[0,0.25]];outlineConnect=0;gradientColor=none;html=1;whiteSpace=wrap;fontSize=12;fontStyle=0;container=1;pointerEvents=0;collapsible=0;recursiveResize=0;shape=mxgraph.aws4.group;grIcon=mxgraph.aws4.group_security_group;grStroke=0;strokeColor=#248814;fillColor=#E9F3E6;verticalAlign=top;align=left;spacingLeft=30;fontColor=#248814;dashed=0;" parent="e8IyntJsyZ7bCLRGpjRz-15" vertex="1">
          <mxGeometry x="20" y="30" width="230" height="260" as="geometry" />
        </mxCell>
        <mxCell id="f9yo37ANykgrV2ahfq6H-2" value="" style="sketch=0;points=[[0,0,0],[0.25,0,0],[0.5,0,0],[0.75,0,0],[1,0,0],[0,1,0],[0.25,1,0],[0.5,1,0],[0.75,1,0],[1,1,0],[0,0.25,0],[0,0.5,0],[0,0.75,0],[1,0.25,0],[1,0.5,0],[1,0.75,0]];outlineConnect=0;fontColor=#232F3E;gradientColor=#F78E04;gradientDirection=north;fillColor=#D05C17;strokeColor=#ffffff;dashed=0;verticalLabelPosition=bottom;verticalAlign=top;align=center;html=1;fontSize=12;fontStyle=0;aspect=fixed;shape=mxgraph.aws4.resourceIcon;resIcon=mxgraph.aws4.fargate;" vertex="1" parent="e8IyntJsyZ7bCLRGpjRz-18">
          <mxGeometry x="50" y="51" width="93" height="93" as="geometry" />
        </mxCell>
        <mxCell id="e8IyntJsyZ7bCLRGpjRz-23" value="IP" style="outlineConnect=0;dashed=0;verticalLabelPosition=bottom;verticalAlign=top;align=center;html=1;shape=mxgraph.aws3.elastic_ip;fillColor=#F58534;gradientColor=none;" parent="e8IyntJsyZ7bCLRGpjRz-15" vertex="1">
          <mxGeometry x="-30" y="120.75" width="90" height="21" as="geometry" />
        </mxCell>
        <mxCell id="e8IyntJsyZ7bCLRGpjRz-21" value="" style="edgeStyle=orthogonalEdgeStyle;rounded=0;orthogonalLoop=1;jettySize=auto;html=1;" parent="e8IyntJsyZ7bCLRGpjRz-4" edge="1">
          <mxGeometry relative="1" as="geometry">
            <mxPoint x="458" y="244" as="sourcePoint" />
            <mxPoint x="458" y="286" as="targetPoint" />
          </mxGeometry>
        </mxCell>
        <mxCell id="f9yo37ANykgrV2ahfq6H-5" value="MYSQL" style="outlineConnect=0;dashed=0;verticalLabelPosition=bottom;verticalAlign=top;align=center;html=1;shape=mxgraph.aws3.rds;fillColor=#2E73B8;gradientColor=none;" vertex="1" parent="e8IyntJsyZ7bCLRGpjRz-4">
          <mxGeometry x="420" y="289" width="72" height="61" as="geometry" />
        </mxCell>
        <mxCell id="e8IyntJsyZ7bCLRGpjRz-31" value="" style="shape=waypoint;sketch=0;size=6;pointerEvents=1;points=[];fillColor=default;resizable=0;rotatable=0;perimeter=centerPerimeter;snapToPoint=1;" parent="e8IyntJsyZ7bCLRGpjRz-1" vertex="1">
          <mxGeometry x="-10" y="240" width="20" height="20" as="geometry" />
        </mxCell>
        <mxCell id="f9yo37ANykgrV2ahfq6H-1" value="" style="edgeStyle=orthogonalEdgeStyle;html=1;endArrow=block;elbow=vertical;startArrow=block;startFill=1;endFill=1;strokeColor=#545B64;rounded=0;exitX=0.9;exitY=0.5;exitDx=0;exitDy=0;exitPerimeter=0;" edge="1" parent="e8IyntJsyZ7bCLRGpjRz-1" source="e8IyntJsyZ7bCLRGpjRz-5">
          <mxGeometry width="100" relative="1" as="geometry">
            <mxPoint x="-40" y="249.5" as="sourcePoint" />
            <mxPoint y="250" as="targetPoint" />
          </mxGeometry>
        </mxCell>
        <mxCell id="e8IyntJsyZ7bCLRGpjRz-5" value="" style="shape=actor;whiteSpace=wrap;html=1;" parent="1" vertex="1">
          <mxGeometry x="29" y="250" width="40" height="60" as="geometry" />
        </mxCell>
      </root>
    </mxGraphModel>
  </diagram>
</mxfile>
